<svg version="1.1" id="Layer_1" xmlns="http://www.w3.org/2000/svg" xmlns:xlink="http://www.w3.org/1999/xlink" x="0px" y="0px"
	 width="100%" viewBox="0 0 424 416" enable-background="new 0 0 424 416" xml:space="preserve">
<path fill="#FEFEFE" opacity="1.000000" stroke="none" 
	d="
M280.000000,417.000000 
	C186.666672,417.000000 93.833359,417.000000 1.000025,417.000000 
	C1.000017,278.333374 1.000017,139.666718 1.000008,1.000062 
	C142.333298,1.000041 283.666595,1.000041 424.999908,1.000021 
	C424.999939,139.666611 424.999939,278.333221 424.999969,416.999908 
	C376.833344,417.000000 328.666656,417.000000 280.000000,417.000000 
M152.744141,367.771362 
	C167.650314,373.763336 183.014343,377.999207 199.062088,379.343353 
	C260.552063,384.493561 311.745483,363.871643 349.991272,315.450958 
	C395.916626,257.307617 398.968323,180.682449 358.774261,118.533051 
	C321.812927,61.382145 255.335800,31.546072 186.100250,44.559010 
	C110.978760,58.678207 57.345421,117.627907 48.639496,193.228058 
	C40.164284,266.824768 83.215805,339.329285 152.744141,367.771362 
z"/>
<path fill="#010101" opacity="1.000000" stroke="none" 
	d="
M152.405212,367.591980 
	C83.215805,339.329285 40.164284,266.824768 48.639496,193.228058 
	C57.345421,117.627907 110.978760,58.678207 186.100250,44.559010 
	C255.335800,31.546072 321.812927,61.382145 358.774261,118.533051 
	C398.968323,180.682449 395.916626,257.307617 349.991272,315.450958 
	C311.745483,363.871643 260.552063,384.493561 199.062088,379.343353 
	C183.014343,377.999207 167.650314,373.763336 152.405212,367.591980 
M166.103302,258.674164 
	C165.664597,259.086639 165.225876,259.499084 164.164230,260.049194 
	C162.739853,261.306519 161.315491,262.563812 159.259781,264.070160 
	C156.532852,266.508087 153.805939,268.946014 150.333618,271.559723 
	C148.072250,273.880310 145.224503,275.864349 143.662216,278.586212 
	C139.400360,286.011383 135.655823,293.735107 131.764496,301.370209 
	C130.785538,303.290985 129.869232,305.271393 129.192307,307.313324 
	C126.960579,314.045319 128.897263,321.226929 134.115707,323.465271 
	C151.255264,330.816803 168.737625,333.659027 186.845154,326.674835 
	C190.369705,325.315399 194.238327,324.869598 197.914841,323.878510 
	C207.673584,321.247833 217.394577,318.474457 227.175858,315.932037 
	C229.545029,315.316223 232.323257,314.589111 234.516464,315.243500 
	C255.247192,321.428711 276.524445,323.834106 298.010071,324.934326 
	C299.266022,324.998657 300.546143,324.589844 301.815033,324.401215 
	C301.764069,324.179047 301.713104,323.956879 301.662109,323.734741 
	C279.559937,320.113739 257.457764,316.492737 235.355591,312.871704 
	C235.355453,312.287872 235.355301,311.704041 235.355148,311.120209 
	C251.202240,301.516785 268.315247,293.762787 280.962524,279.669189 
	C283.442688,281.812469 285.329803,283.730408 287.492706,285.257690 
	C293.585938,289.560272 299.649475,293.943237 306.051178,297.744812 
	C307.733246,298.743744 310.601013,297.745941 312.924316,297.665100 
	C312.635345,295.356445 313.118011,292.494934 311.926941,290.832672 
	C306.051300,282.632507 300.497650,273.647919 288.321350,274.329346 
	C287.925995,274.351501 287.507690,273.963409 286.574768,273.512909 
	C298.009644,261.403229 303.892853,247.051102 305.673218,230.133728 
	C305.749146,222.210327 306.356506,214.247208 305.768036,206.373459 
	C305.013519,196.278107 302.812439,186.442368 294.980225,178.192307 
	C294.073792,177.192795 293.167358,176.193298 292.423737,174.402481 
	C291.867950,164.282852 291.312164,154.163223 290.853607,143.281067 
	C288.853729,142.528900 286.752686,140.942566 284.871643,141.170654 
	C277.208099,142.099869 270.240601,144.802216 264.316650,150.128204 
	C261.576080,152.592117 258.164215,154.403763 254.846512,156.099991 
	C252.399323,157.351166 249.611572,157.936264 246.179306,158.846115 
	C244.262482,158.430588 242.119141,158.429718 240.468079,157.527725 
	C233.332962,153.629745 225.832306,150.137558 219.413147,145.251617 
	C208.716064,137.109512 199.076767,127.578926 188.390579,119.420883 
	C172.565063,107.339378 154.690781,100.034645 134.480255,99.709923 
	C130.899216,99.652382 127.111969,100.180664 123.758141,101.382324 
	C119.715363,102.830849 118.911377,106.265984 121.970566,109.247070 
	C125.009308,112.208229 128.761276,114.510567 132.414017,116.754166 
	C141.515076,122.344254 150.625092,127.857918 156.900375,136.883972 
	C162.356750,144.732162 167.891998,152.525513 173.578537,160.607651 
	C163.674622,165.468216 158.344269,173.291245 159.007080,183.576157 
	C159.525574,191.621613 155.335999,195.785507 150.011002,199.965332 
	C147.539948,201.904953 144.783035,203.619339 142.761948,205.959427 
	C139.993347,209.164993 141.016327,211.604080 145.237137,212.032120 
	C155.166687,213.039124 165.113800,213.958298 175.075638,214.537735 
	C184.993240,215.114624 193.213470,211.579483 199.660065,203.743546 
	C202.702255,200.045700 206.172913,196.554199 209.973892,193.657349 
	C217.758484,187.724457 226.133072,185.258087 235.349197,191.014343 
	C239.429047,193.562546 243.775192,195.684387 248.234680,198.757690 
	C247.135605,201.629669 246.036514,204.501648 244.234024,207.630096 
	C237.148239,211.697632 230.062454,215.765167 222.327057,220.058029 
	C220.518265,221.324265 218.709488,222.590515 216.218750,223.986481 
	C213.851410,225.515594 211.438782,226.979477 209.125275,228.586121 
	C202.349243,233.291794 195.612701,238.054337 188.160065,242.907104 
	C182.775696,246.810287 177.391327,250.713455 171.381882,254.974731 
	C169.813324,256.174896 168.244766,257.375061 166.669144,258.620392 
	C166.669144,258.620392 166.714828,258.622040 166.103302,258.674164 
z"/>
<path fill="#BDBCBD" opacity="1.000000" stroke="none" 
	d="
M222.976669,219.832703 
	C230.062454,215.765167 237.148239,211.697632 244.568298,207.908966 
	C244.385651,210.284149 243.868713,212.380463 243.141525,215.329391 
	C244.602615,214.484253 245.197678,214.235657 245.679871,213.847031 
	C255.251114,206.132828 265.640930,199.990952 277.066711,195.219330 
	C285.496094,191.699066 290.787231,184.597626 292.260925,175.193787 
	C293.167358,176.193298 294.073792,177.192795 294.817688,178.757629 
	C289.514008,185.381317 292.060913,190.625168 296.523651,195.462280 
	C288.483887,209.749817 295.878082,221.273438 302.270447,233.333710 
	C303.531525,232.267502 304.402191,231.531372 305.272888,230.795227 
	C303.892853,247.051102 298.009644,261.403229 286.574768,273.512909 
	C287.507690,273.963409 287.925995,274.351501 288.321350,274.329346 
	C300.497650,273.647919 306.051300,282.632507 311.926941,290.832672 
	C313.118011,292.494934 312.635345,295.356445 312.924316,297.665100 
	C310.601013,297.745941 307.733246,298.743744 306.051178,297.744812 
	C299.649475,293.943237 293.585938,289.560272 287.492706,285.257690 
	C285.329803,283.730408 283.442688,281.812469 280.962524,279.669189 
	C268.315247,293.762787 251.202240,301.516785 235.355148,311.120209 
	C235.355301,311.704041 235.355453,312.287872 235.355591,312.871704 
	C257.457764,316.492737 279.559937,320.113739 301.662109,323.734741 
	C301.713104,323.956879 301.764069,324.179047 301.815033,324.401215 
	C300.546143,324.589844 299.266022,324.998657 298.010071,324.934326 
	C276.524445,323.834106 255.247192,321.428711 234.516464,315.243500 
	C232.323257,314.589111 229.545029,315.316223 227.175858,315.932037 
	C217.394577,318.474457 207.673584,321.247833 197.914841,323.878510 
	C194.238327,324.869598 190.369705,325.315399 186.845154,326.674835 
	C168.737625,333.659027 151.255264,330.816803 134.115707,323.465271 
	C128.897263,321.226929 126.960579,314.045319 129.192307,307.313324 
	C129.869232,305.271393 130.785538,303.290985 131.764496,301.370209 
	C135.655823,293.735107 139.400360,286.011383 143.662216,278.586212 
	C145.224503,275.864349 148.072250,273.880310 150.672577,271.907898 
	C150.159149,275.032349 149.578491,277.930328 148.400681,280.560913 
	C145.481949,287.079742 147.728333,291.049438 154.839996,290.698853 
	C157.583405,290.563660 160.253082,288.933075 162.968994,287.997925 
	C162.981628,288.012085 163.007980,287.984833 163.240814,287.897888 
	C163.777054,287.625000 163.955841,287.356140 164.005005,287.002197 
	C164.000000,287.000000 164.006241,287.009277 164.291992,286.927094 
	C165.082733,286.251373 165.587708,285.657867 166.059418,285.043793 
	C166.026169,285.023254 166.023071,285.101379 166.409241,285.111908 
	C168.229660,284.779633 169.663879,284.436829 171.077271,284.122681 
	C171.056427,284.151367 171.121368,284.179871 171.511658,284.215149 
	C173.621216,283.846405 175.340454,283.442383 177.426819,283.037170 
	C184.121002,280.860809 185.518921,278.702087 186.292084,272.448334 
	C186.804153,268.306519 185.890335,265.178894 184.079178,261.324860 
	C182.451309,257.860809 181.015350,257.130829 177.828766,256.808960 
	C175.782822,255.853638 173.894897,255.235138 172.006958,254.616638 
	C177.391327,250.713455 182.775696,246.810287 188.752411,243.161438 
	C195.757126,245.953674 201.615662,244.760468 207.468170,240.840164 
	C209.246475,240.935333 210.617950,240.976288 212.156433,241.297577 
	C214.335114,241.996994 216.346756,242.416077 218.334229,243.293304 
	C215.766922,250.086868 224.072037,254.345108 221.624344,260.771118 
	C221.423431,261.298523 222.823715,262.726349 223.746155,263.327148 
	C225.381119,264.392029 227.220520,265.143036 229.144958,266.357727 
	C234.213959,267.771454 239.112381,268.852814 244.330841,270.161987 
	C250.393997,270.366333 256.599487,271.692230 260.064270,265.053986 
	C260.037262,265.009125 260.049255,265.113159 260.314056,265.041260 
	C260.760620,264.666138 260.942352,264.362885 261.083130,264.051758 
	C261.042206,264.043915 261.061462,264.125031 261.325989,264.050415 
	C261.768097,263.669189 261.945740,263.362579 262.083008,263.047913 
	C262.042664,263.039825 262.058807,263.120544 262.314270,263.035339 
	C262.731445,262.640381 262.893158,262.330627 263.318756,261.823761 
	C263.783997,260.780304 263.985321,259.933929 264.458618,258.979187 
	C265.135376,258.238586 265.540253,257.606384 265.975433,256.979401 
	C266.005737,256.984619 265.967804,256.936157 266.234863,256.729736 
	C266.723755,255.661896 266.945618,254.800430 267.274139,253.715439 
	C267.498535,253.138199 267.424133,252.831055 267.450439,252.286560 
	C269.439636,248.173370 271.288910,244.402039 272.771942,240.491806 
	C273.592255,238.328934 274.877014,235.406052 274.066101,233.748749 
	C272.174408,229.882736 269.536743,226.162613 266.430237,223.188828 
	C264.430420,221.274429 261.355103,218.227600 257.719055,222.082764 
	C256.450775,222.786621 255.497803,223.474915 254.169464,224.113785 
	C251.194366,225.458221 248.594604,226.852066 245.667038,228.275757 
	C242.893875,229.202255 240.448532,230.098938 237.940613,230.757233 
	C237.671768,230.244064 237.401733,230.065842 237.142395,229.647522 
	C238.269699,223.559692 234.243530,222.607452 230.120544,221.824341 
	C230.147339,221.876678 230.225067,221.788422 230.114380,221.426987 
	C228.019165,220.769440 226.034637,220.473328 223.789917,220.065582 
	C223.345398,219.913513 223.161041,219.873108 222.976669,219.832703 
M188.674088,309.653687 
	C190.966278,305.937256 190.811310,302.496796 187.324234,299.612091 
	C184.560806,297.326050 182.701355,297.387756 179.980499,299.563324 
	C186.812302,300.796387 187.818573,302.105255 187.662384,310.059448 
	C187.606232,310.170349 187.550095,310.281250 187.493942,310.392151 
	C187.659698,310.257782 187.825439,310.123413 188.674088,309.653687 
M176.095459,306.014160 
	C175.639557,307.504608 174.396759,309.405518 174.910400,310.390228 
	C175.700272,311.904480 177.576111,313.396423 179.223785,313.722534 
	C180.275360,313.930664 181.746674,312.018066 183.566391,310.575073 
	C185.532852,308.359924 185.809464,305.973297 183.389664,304.109100 
	C180.672943,302.016144 178.464386,303.360107 176.095459,306.014160 
z"/>
<path fill="#BCBCBE" opacity="1.000000" stroke="none" 
	d="
M248.000458,197.999786 
	C243.775192,195.684387 239.429047,193.562546 235.349197,191.014343 
	C226.133072,185.258087 217.758484,187.724457 209.973892,193.657349 
	C206.172913,196.554199 202.702255,200.045700 199.660065,203.743546 
	C193.213470,211.579483 184.993240,215.114624 175.075638,214.537735 
	C165.113800,213.958298 155.166687,213.039124 145.237137,212.032120 
	C141.016327,211.604080 139.993347,209.164993 142.761948,205.959427 
	C144.783035,203.619339 147.539948,201.904953 150.011002,199.965332 
	C155.335999,195.785507 159.525574,191.621613 159.007080,183.576157 
	C158.344269,173.291245 163.674622,165.468216 173.578537,160.607651 
	C167.891998,152.525513 162.356750,144.732162 156.900375,136.883972 
	C150.625092,127.857918 141.515076,122.344254 132.414017,116.754166 
	C128.761276,114.510567 125.009308,112.208229 121.970566,109.247070 
	C118.911377,106.265984 119.715363,102.830849 123.758141,101.382324 
	C127.111969,100.180664 130.899216,99.652382 134.480255,99.709923 
	C154.690781,100.034645 172.565063,107.339378 188.390579,119.420883 
	C199.076767,127.578926 208.716064,137.109512 219.413147,145.251617 
	C225.832306,150.137558 233.332962,153.629745 240.468079,157.527725 
	C242.119141,158.429718 244.262482,158.430588 246.749237,159.137863 
	C248.869461,159.981552 250.419754,160.533478 251.710388,161.348267 
	C249.702621,162.191360 247.954498,162.771606 246.153275,163.511688 
	C246.100159,163.671539 245.994934,163.991562 245.571167,164.004196 
	C241.986115,164.461533 237.082520,163.110580 238.347488,168.923904 
	C239.499039,174.216003 241.085251,179.668167 247.096710,182.257721 
	C247.650116,182.706558 248.104187,182.916855 248.679321,183.399658 
	C249.223022,184.057404 249.645630,184.442642 250.059326,184.899597 
	C250.050385,184.971329 250.194946,184.972183 250.302826,185.285980 
	C252.203796,186.511429 253.996918,187.423050 255.845795,188.525040 
	C255.901550,188.715393 256.091156,189.063889 255.935883,189.363708 
	C253.187241,192.442261 250.593857,195.221024 248.000458,197.999786 
z"/>
<path fill="#949498" opacity="1.000000" stroke="none" 
	d="
M248.117584,198.378738 
	C250.593857,195.221024 253.187241,192.442261 256.269531,189.259735 
	C259.445007,181.614182 262.131531,174.372391 265.157349,167.069519 
	C265.998566,166.338196 266.500519,165.667938 267.348907,164.957184 
	C268.854919,163.830521 270.342896,162.938828 271.120270,161.626266 
	C275.828613,153.676346 282.187195,147.645264 290.756378,144.043594 
	C291.312164,154.163223 291.867950,164.282852 292.342346,174.798126 
	C290.787231,184.597626 285.496094,191.699066 277.066711,195.219330 
	C265.640930,199.990952 255.251114,206.132828 245.679871,213.847031 
	C245.197678,214.235657 244.602615,214.484253 243.141525,215.329391 
	C243.868713,212.380463 244.385651,210.284149 244.920013,207.780731 
	C246.036514,204.501648 247.135605,201.629669 248.117584,198.378738 
z"/>
<path fill="#EB3C36" opacity="1.000000" stroke="none" 
	d="
M237.067963,229.984177 
	C237.401733,230.065842 237.671768,230.244064 237.989807,231.105743 
	C238.894836,233.149063 240.344162,234.594879 240.367935,236.063766 
	C240.471573,242.468613 239.860672,248.891663 240.104950,255.285324 
	C240.270950,259.630646 240.243668,263.604279 236.935959,266.585999 
	C234.169861,266.391235 231.572113,266.208282 228.974380,266.025360 
	C227.220520,265.143036 225.381119,264.392029 223.746155,263.327148 
	C222.823715,262.726349 221.423431,261.298523 221.624344,260.771118 
	C224.072037,254.345108 215.766922,250.086868 218.533722,243.016937 
	C218.330994,239.888184 217.736649,237.509247 217.517029,235.096176 
	C217.177170,231.361938 217.093185,227.604401 216.900696,223.856750 
	C218.709488,222.590515 220.518265,221.324265 222.651855,219.945358 
	C223.161041,219.873108 223.345398,219.913513 224.036942,220.308624 
	C226.437775,221.038361 228.331421,221.413391 230.225067,221.788422 
	C230.225067,221.788422 230.147339,221.876678 230.256241,222.146118 
	C232.599411,224.938446 234.833694,227.461304 237.067963,229.984177 
z"/>
<path fill="#D93636" opacity="1.000000" stroke="none" 
	d="
M305.473053,230.464478 
	C304.402191,231.531372 303.531525,232.267502 302.270447,233.333710 
	C295.878082,221.273438 288.483887,209.749817 296.523651,195.462280 
	C292.060913,190.625168 289.514008,185.381317 294.943420,179.071533 
	C302.812439,186.442368 305.013519,196.278107 305.768036,206.373459 
	C306.356506,214.247208 305.749146,222.210327 305.473053,230.464478 
z"/>
<path fill="#7F8083" opacity="1.000000" stroke="none" 
	d="
M290.804993,143.662323 
	C282.187195,147.645264 275.828613,153.676346 271.120270,161.626266 
	C270.342896,162.938828 268.854919,163.830521 266.965607,164.897186 
	C261.480591,163.613586 256.725311,162.349503 251.970047,161.085403 
	C250.419754,160.533478 248.869461,159.981552 247.147369,159.123871 
	C249.611572,157.936264 252.399323,157.351166 254.846512,156.099991 
	C258.164215,154.403763 261.576080,152.592117 264.316650,150.128204 
	C270.240601,144.802216 277.208099,142.099869 284.871643,141.170654 
	C286.752686,140.942566 288.853729,142.528900 290.804993,143.662323 
z"/>
<path fill="#EB3934" opacity="1.000000" stroke="none" 
	d="
M159.891113,263.821136 
	C161.315491,262.563812 162.739853,261.306519 164.816193,259.986542 
	C165.883713,259.489929 166.299271,259.055969 166.714813,258.622009 
	C166.714828,258.622040 166.669144,258.620392 167.025803,258.729004 
	C168.463440,258.602570 169.544434,258.367493 171.422089,257.959137 
	C171.610794,261.896790 171.535141,265.996399 172.123871,269.998291 
	C172.384232,271.768158 173.990601,273.339996 174.988510,275.333435 
	C174.988693,276.107361 174.986313,276.549652 174.617859,277.036469 
	C170.613434,278.303009 170.850769,281.234100 171.121368,284.179871 
	C171.121368,284.179871 171.056427,284.151367 170.678772,284.090027 
	C168.875122,284.386261 167.449097,284.743835 166.023071,285.101379 
	C166.023071,285.101379 166.026169,285.023254 165.726578,285.058228 
	C164.953400,285.731903 164.479828,286.370575 164.006241,287.009277 
	C164.006241,287.009277 164.000000,287.000000 163.782440,287.101868 
	C163.286972,287.398285 163.101334,287.658661 163.007980,287.984833 
	C163.007980,287.984833 162.981628,288.012085 162.557022,287.989624 
	C161.421753,286.414948 160.161362,284.885345 160.096542,283.306641 
	C159.830200,276.819580 159.927551,270.317627 159.891113,263.821136 
z"/>
<path fill="#E42E30" opacity="1.000000" stroke="none" 
	d="
M216.559723,223.921616 
	C217.093185,227.604401 217.177170,231.361938 217.517029,235.096176 
	C217.736649,237.509247 218.330994,239.888184 218.557907,242.558807 
	C216.346756,242.416077 214.335114,241.996994 211.942398,241.024139 
	C210.061340,240.575562 208.561325,240.680756 207.061325,240.785934 
	C201.615662,244.760468 195.757126,245.953674 189.102722,243.105179 
	C195.612701,238.054337 202.349243,233.291794 209.125275,228.586121 
	C211.438782,226.979477 213.851410,225.515594 216.559723,223.921616 
z"/>
<path fill="#E72F30" opacity="1.000000" stroke="none" 
	d="
M159.575439,263.945648 
	C159.927551,270.317627 159.830200,276.819580 160.096542,283.306641 
	C160.161362,284.885345 161.421753,286.414948 162.544388,287.975464 
	C160.253082,288.933075 157.583405,290.563660 154.839996,290.698853 
	C147.728333,291.049438 145.481949,287.079742 148.400681,280.560913 
	C149.578491,277.930328 150.159149,275.032349 151.045288,271.820007 
	C153.805939,268.946014 156.532852,266.508087 159.575439,263.945648 
z"/>
<path fill="#DD3936" opacity="1.000000" stroke="none" 
	d="
M174.985931,275.001740 
	C173.990601,273.339996 172.384232,271.768158 172.123871,269.998291 
	C171.535141,265.996399 171.610794,261.896790 171.422089,257.959137 
	C169.544434,258.367493 168.463440,258.602570 167.029327,258.706451 
	C168.244766,257.375061 169.813324,256.174896 171.694427,254.795685 
	C173.894897,255.235138 175.782822,255.853638 177.826904,257.151581 
	C177.763229,259.533417 177.710938,261.278473 177.290268,262.929718 
	C176.275848,266.911591 179.073105,271.621582 174.985931,275.001740 
z"/>
<path fill="#DD3936" opacity="1.000000" stroke="none" 
	d="
M166.409058,258.648071 
	C166.299271,259.055969 165.883713,259.489929 165.127670,259.917725 
	C165.225876,259.499084 165.664597,259.086639 166.409058,258.648071 
z"/>
<path fill="#CE2A31" opacity="1.000000" stroke="none" 
	d="
M267.157593,252.570435 
	C267.424133,252.831055 267.498535,253.138199 266.982697,253.904449 
	C266.378998,255.190048 266.173401,256.063110 265.967804,256.936157 
	C265.967804,256.936157 266.005737,256.984619 265.642212,256.987732 
	C264.914703,257.689758 264.550720,258.388672 264.186707,259.087555 
	C263.985321,259.933929 263.783997,260.780304 263.079834,261.930969 
	C262.404297,262.530365 262.231567,262.825470 262.058807,263.120544 
	C262.058807,263.120544 262.042664,263.039825 261.829865,263.138855 
	C261.431885,263.533600 261.246674,263.829315 261.061462,264.125031 
	C261.061462,264.125031 261.042206,264.043915 260.829956,264.140289 
	C260.428192,264.528839 260.238739,264.820984 260.049255,265.113159 
	C260.049255,265.113159 260.037262,265.009125 259.639618,265.019470 
	C258.166626,264.139984 256.144409,263.217194 256.174042,262.365814 
	C256.331665,257.839172 253.151337,252.551025 259.549896,249.120026 
	C252.964310,246.850662 255.364594,242.009491 255.160126,238.026413 
	C254.922989,233.406998 254.747223,228.784409 254.544815,224.163208 
	C255.497803,223.474915 256.450775,222.786621 257.919556,222.319855 
	C261.632538,224.211777 264.829681,225.882187 267.157593,227.098419 
	C267.157593,236.210693 267.157593,244.390564 267.157593,252.570435 
z"/>
<path fill="#D63133" opacity="1.000000" stroke="none" 
	d="
M254.169464,224.113785 
	C254.747223,228.784409 254.922989,233.406998 255.160126,238.026413 
	C255.364594,242.009491 252.964310,246.850662 259.549896,249.120026 
	C253.151337,252.551025 256.331665,257.839172 256.174042,262.365814 
	C256.144409,263.217194 258.166626,264.139984 259.666626,265.064331 
	C256.599487,271.692230 250.393997,270.366333 244.564606,269.877808 
	C245.316391,268.064667 246.892609,266.755096 246.877930,265.463623 
	C246.736801,253.055984 246.327408,240.651398 245.994858,228.245941 
	C248.594604,226.852066 251.194366,225.458221 254.169464,224.113785 
z"/>
<path fill="#E03A39" opacity="1.000000" stroke="none" 
	d="
M245.667038,228.275757 
	C246.327408,240.651398 246.736801,253.055984 246.877930,265.463623 
	C246.892609,266.755096 245.316391,268.064667 244.244568,269.649994 
	C239.112381,268.852814 234.213959,267.771454 229.144958,266.357727 
	C231.572113,266.208282 234.169861,266.391235 236.935959,266.585999 
	C240.243668,263.604279 240.270950,259.630646 240.104950,255.285324 
	C239.860672,248.891663 240.471573,242.468613 240.367935,236.063766 
	C240.344162,234.594879 238.894836,233.149063 238.052399,231.344116 
	C240.448532,230.098938 242.893875,229.202255 245.667038,228.275757 
z"/>
<path fill="#CA2F36" opacity="1.000000" stroke="none" 
	d="
M174.988495,275.333435 
	C179.073105,271.621582 176.275848,266.911591 177.290268,262.929718 
	C177.710938,261.278473 177.763229,259.533417 177.984909,257.488403 
	C181.015350,257.130829 182.451309,257.860809 184.079178,261.324860 
	C185.890335,265.178894 186.804153,268.306519 186.292084,272.448334 
	C185.518921,278.702087 184.121002,280.860809 177.259186,282.830139 
	C179.998398,279.555817 174.868744,279.084259 174.983917,276.991913 
	C174.986313,276.549652 174.988693,276.107361 174.988495,275.333435 
z"/>
<path fill="#C12B37" opacity="1.000000" stroke="none" 
	d="
M267.450439,252.286560 
	C267.157593,244.390564 267.157593,236.210693 267.157593,227.098419 
	C264.829681,225.882187 261.632538,224.211777 258.234863,222.304291 
	C261.355103,218.227600 264.430420,221.274429 266.430237,223.188828 
	C269.536743,226.162613 272.174408,229.882736 274.066101,233.748749 
	C274.877014,235.406052 273.592255,238.328934 272.771942,240.491806 
	C271.288910,244.402039 269.439636,248.173370 267.450439,252.286560 
z"/>
<path fill="#111113" opacity="1.000000" stroke="none" 
	d="
M176.786575,305.905975 
	C178.464386,303.360107 180.672943,302.016144 183.389664,304.109100 
	C185.809464,305.973297 185.532852,308.359924 182.869110,310.822388 
	C177.971863,311.856506 176.564850,309.730530 176.786575,305.905975 
z"/>
<path fill="#7C7D7F" opacity="1.000000" stroke="none" 
	d="
M188.013260,310.011414 
	C187.818573,302.105255 186.812302,300.796387 179.980499,299.563324 
	C182.701355,297.387756 184.560806,297.326050 187.324234,299.612091 
	C190.811310,302.496796 190.966278,305.937256 188.337402,309.827179 
	C188.000732,310.000671 188.013260,310.011414 188.013260,310.011414 
z"/>
<path fill="#DD3936" opacity="1.000000" stroke="none" 
	d="
M174.617874,277.036469 
	C174.868744,279.084259 179.998398,279.555817 176.892090,282.831299 
	C175.340454,283.442383 173.621216,283.846405 171.511658,284.215149 
	C170.850769,281.234100 170.613434,278.303009 174.617874,277.036469 
z"/>
<path fill="#848586" opacity="1.000000" stroke="none" 
	d="
M176.441010,305.960083 
	C176.564850,309.730530 177.971863,311.856506 182.600800,311.062988 
	C181.746674,312.018066 180.275360,313.930664 179.223785,313.722534 
	C177.576111,313.396423 175.700272,311.904480 174.910400,310.390228 
	C174.396759,309.405518 175.639557,307.504608 176.441010,305.960083 
z"/>
<path fill="#E03A39" opacity="1.000000" stroke="none" 
	d="
M237.142395,229.647522 
	C234.833694,227.461304 232.599411,224.938446 230.229431,222.093796 
	C234.243530,222.607452 238.269699,223.559692 237.142395,229.647522 
z"/>
<path fill="#E03A39" opacity="1.000000" stroke="none" 
	d="
M230.114380,221.426987 
	C228.331421,221.413391 226.437775,221.038361 224.297119,220.420273 
	C226.034637,220.473328 228.019165,220.769440 230.114380,221.426987 
z"/>
<path fill="#C12B37" opacity="1.000000" stroke="none" 
	d="
M264.458618,258.979187 
	C264.550720,258.388672 264.914703,257.689758 265.611938,256.982513 
	C265.540253,257.606384 265.135376,258.238586 264.458618,258.979187 
z"/>
<path fill="#DD3936" opacity="1.000000" stroke="none" 
	d="
M166.409241,285.111938 
	C167.449097,284.743835 168.875122,284.386261 170.699615,284.061340 
	C169.663879,284.436829 168.229660,284.779633 166.409241,285.111938 
z"/>
<path fill="#EB3C36" opacity="1.000000" stroke="none" 
	d="
M207.468170,240.840164 
	C208.561325,240.680756 210.061340,240.575562 211.775391,240.743805 
	C210.617950,240.976288 209.246475,240.935333 207.468170,240.840164 
z"/>
<path fill="#DD3936" opacity="1.000000" stroke="none" 
	d="
M164.291992,286.927094 
	C164.479828,286.370575 164.953400,285.731903 165.759827,285.078766 
	C165.587708,285.657867 165.082733,286.251373 164.291992,286.927094 
z"/>
<path fill="#C12B37" opacity="1.000000" stroke="none" 
	d="
M266.234863,256.729736 
	C266.173401,256.063110 266.378998,255.190048 266.876038,254.127991 
	C266.945618,254.800430 266.723755,255.661896 266.234863,256.729736 
z"/>
<path fill="#C12B37" opacity="1.000000" stroke="none" 
	d="
M261.325989,264.050415 
	C261.246674,263.829315 261.431885,263.533600 261.870239,263.146912 
	C261.945740,263.362579 261.768097,263.669189 261.325989,264.050415 
z"/>
<path fill="#C12B37" opacity="1.000000" stroke="none" 
	d="
M260.314056,265.041260 
	C260.238739,264.820984 260.428192,264.528839 260.870880,264.148132 
	C260.942352,264.362885 260.760620,264.666138 260.314056,265.041260 
z"/>
<path fill="#C12B37" opacity="1.000000" stroke="none" 
	d="
M262.314270,263.035339 
	C262.231567,262.825470 262.404297,262.530365 262.815979,262.128052 
	C262.893158,262.330627 262.731445,262.640381 262.314270,263.035339 
z"/>
<path fill="#DD3936" opacity="1.000000" stroke="none" 
	d="
M163.240814,287.897888 
	C163.101334,287.658661 163.286972,287.398285 163.787445,287.104065 
	C163.955841,287.356140 163.777054,287.625000 163.240814,287.897888 
z"/>
<path fill="#7C7D7F" opacity="1.000000" stroke="none" 
	d="
M187.995956,309.994873 
	C187.825439,310.123413 187.659698,310.257782 187.493958,310.392151 
	C187.550095,310.281250 187.606232,310.170349 187.837830,310.035431 
	C188.013260,310.011414 188.000732,310.000671 187.995956,309.994873 
z"/>
<path fill="#E63435" opacity="1.000000" stroke="none" 
	d="
M246.997345,182.019180 
	C241.085251,179.668167 239.499039,174.216003 238.347488,168.923904 
	C237.082520,163.110580 241.986115,164.461533 245.902618,164.012390 
	C247.099533,164.024643 247.541229,164.041321 247.988434,164.494629 
	C247.661743,170.627228 247.329544,176.323196 246.997345,182.019180 
z"/>
<path fill="#DC3A37" opacity="1.000000" stroke="none" 
	d="
M255.790024,188.334686 
	C253.996918,187.423050 252.203796,186.511429 250.669403,185.285370 
	C251.847061,183.793930 253.480774,182.664459 253.562805,181.431732 
	C253.943649,175.707535 253.894485,169.954712 254.281128,164.227463 
	C255.057404,164.519623 255.551804,164.796463 256.248047,165.345215 
	C257.915497,167.656967 260.867401,169.947510 260.573395,171.690460 
	C259.619202,177.346558 257.475616,182.801987 255.790024,188.334686 
z"/>
<path fill="#EC3C37" opacity="1.000000" stroke="none" 
	d="
M253.999268,164.212143 
	C253.894485,169.954712 253.943649,175.707535 253.562805,181.431732 
	C253.480774,182.664459 251.847061,183.793930 250.561539,184.971573 
	C250.194946,184.972183 250.050385,184.971329 249.992218,184.593231 
	C249.475449,183.852463 249.016846,183.489807 248.558243,183.127151 
	C248.104187,182.916855 247.650116,182.706558 247.096710,182.257721 
	C247.329544,176.323196 247.661743,170.627228 248.276855,164.592529 
	C249.399887,164.126511 250.239975,163.999207 251.449036,163.871399 
	C252.545074,163.984634 253.272156,164.098389 253.999268,164.212143 
z"/>
<path fill="#C3343D" opacity="1.000000" stroke="none" 
	d="
M255.845795,188.525040 
	C257.475616,182.801987 259.619202,177.346558 260.573395,171.690460 
	C260.867401,169.947510 257.915497,167.656967 256.627594,165.302032 
	C259.476227,165.701492 262.147125,166.416046 264.818054,167.130585 
	C262.131531,174.372391 259.445007,181.614182 256.424805,188.959930 
	C256.091156,189.063889 255.901550,188.715393 255.845795,188.525040 
z"/>
<path fill="#C8ABAB" opacity="1.000000" stroke="none" 
	d="
M265.157349,167.069519 
	C262.147125,166.416046 259.476227,165.701492 256.425751,165.030121 
	C255.551804,164.796463 255.057404,164.519623 254.281128,164.227463 
	C253.272156,164.098389 252.545074,163.984634 251.179138,163.630035 
	C249.095657,163.376740 247.651031,163.364304 246.206390,163.351852 
	C247.954498,162.771606 249.702621,162.191360 251.710388,161.348267 
	C256.725311,162.349503 261.480591,163.613586 266.619171,164.937683 
	C266.500519,165.667938 265.998566,166.338196 265.157349,167.069519 
z"/>
<path fill="#DC3A37" opacity="1.000000" stroke="none" 
	d="
M246.153275,163.511688 
	C247.651031,163.364304 249.095657,163.376740 250.810181,163.630554 
	C250.239975,163.999207 249.399887,164.126511 248.271362,164.155914 
	C247.541229,164.041321 247.099533,164.024643 246.326385,163.999756 
	C245.994934,163.991562 246.100159,163.671539 246.153275,163.511688 
z"/>
<path fill="#DC3A37" opacity="1.000000" stroke="none" 
	d="
M248.679321,183.399658 
	C249.016846,183.489807 249.475449,183.852463 250.001160,184.521484 
	C249.645630,184.442642 249.223022,184.057404 248.679321,183.399658 
z"/>
</svg>